<svg xmlns="http://www.w3.org/2000/svg" viewBox="0 0 64 64">
  <circle cx="19" cy="18" r="9" fill="#4a2b25"/>
  <circle cx="45" cy="18" r="9" fill="#4a2b25"/>
  <path d="M10 27c5-14 18-20 32-16 13 4 21 15 19 29-2 15-14 22-29 22S6 55 4 41c-1-6 1-11 6-14Z" fill="#fffdf8" stroke="#5b382f" stroke-width="4" stroke-linejoin="round"/>
  <circle cx="22" cy="38" r="3.5" fill="#4a2b25"/>
  <circle cx="42" cy="38" r="3.5" fill="#4a2b25"/>
  <circle cx="16" cy="44" r="6" fill="#f7bbb7"/>
  <circle cx="49" cy="44" r="6" fill="#f7bbb7"/>
  <path d="M27 47c2 4 6 4 8 0 2 4 6 4 8 0" fill="none" stroke="#4a2b25" stroke-width="3" stroke-linecap="round"/>
</svg>
