<svg xmlns="http://www.w3.org/2000/svg" viewBox="0 0 64 64">
  <circle cx="20" cy="20" r="10" fill="#4a2b25"/>
  <circle cx="44" cy="20" r="10" fill="#4a2b25"/>
  <path d="M12 27c4-13 18-19 31-15 13 3 22 14 20 29-2 15-14 22-31 22S5 54 4 41c-1-6 1-11 8-14Z" fill="#fffdf8" stroke="#5b382f" stroke-width="4" stroke-linejoin="round"/>
  <circle cx="22" cy="37" r="3.5" fill="#4a2b25"/>
  <circle cx="42" cy="37" r="3.5" fill="#4a2b25"/>
  <circle cx="16" cy="43" r="6" fill="#f7bbb7"/>
  <circle cx="49" cy="43" r="6" fill="#f7bbb7"/>
  <path d="M28 46c2 4 6 4 8 0 2 4 6 4 8 0" fill="none" stroke="#4a2b25" stroke-width="3" stroke-linecap="round"/>
</svg>

